<?xml version="1.0" standalone="no"?>
<!DOCTYPE svg PUBLIC "-//W3C//DTD SVG 20010904//EN"
 "http://www.w3.org/TR/2001/REC-SVG-20010904/DTD/svg10.dtd">
<svg version="1.0" xmlns="http://www.w3.org/2000/svg"
 width="260.000000pt" height="260.000000pt" viewBox="0 0 260.000000 260.000000"
 preserveAspectRatio="xMidYMid meet">
<metadata>
Created by potrace 1.14, written by Peter Selinger 2001-2017
</metadata>
<g transform="translate(0.000000,260.000000) scale(0.100000,-0.100000)"
fill="#000000" stroke="none">
<path d="M1001 1969 c-124 -35 -207 -89 -277 -177 -58 -75 -72 -105 -101 -231
-43 -181 -38 -177 -193 -184 -101 -4 -114 -9 -197 -64 -64 -44 -94 -105 -101
-208 -11 -171 79 -305 270 -402 123 -63 333 -105 518 -105 255 0 498 71 645
187 99 78 191 204 214 292 18 66 46 92 114 103 62 10 103 6 127 -13 43 -34 45
-45 50 -246 4 -174 7 -200 25 -231 39 -65 138 -78 191 -24 l25 24 -3 611 -3
611 -37 34 c-32 29 -45 34 -88 34 -41 0 -55 -5 -82 -29 l-33 -29 -3 -234 c-1
-128 -4 -243 -7 -255 -11 -47 -113 -68 -195 -40 -39 14 -48 34 -73 163 -17 95
-69 189 -145 269 -80 83 -128 111 -246 144 -148 42 -249 42 -395 0z m314 -190
c53 -14 136 -71 176 -122 38 -47 56 -95 65 -171 6 -50 4 -57 -20 -81 -26 -26
-30 -27 -126 -23 -114 4 -136 14 -185 92 -24 37 -44 54 -102 83 -71 35 -75 36
-152 29 -96 -8 -108 1 -88 60 16 45 92 104 167 128 54 17 208 20 265 5z m-298
-389 c70 -42 66 -159 -6 -207 -42 -29 -84 -29 -127 -2 -47 29 -64 57 -64 105
0 57 7 71 49 99 44 31 103 33 148 5z m429 -210 c52 0 84 -26 84 -68 0 -31 -64
-121 -121 -170 -55 -48 -190 -109 -271 -122 -101 -17 -426 -8 -493 14 -91 29
-198 89 -229 128 -41 53 -48 129 -15 164 36 39 73 54 129 54 64 0 91 -14 162
-88 32 -32 81 -71 110 -87 48 -26 62 -29 148 -29 125 0 166 19 259 115 57 58
80 74 118 85 27 7 54 11 61 8 8 -2 34 -4 58 -4z"/>
</g>
</svg>
